<?xml version="1.0" standalone="no"?><!DOCTYPE svg PUBLIC "-//W3C//DTD SVG 1.1//EN" "http://www.w3.org/Graphics/SVG/1.1/DTD/svg11.dtd"><svg t="1744722294320" class="icon" viewBox="0 0 1024 1024" version="1.1" xmlns="http://www.w3.org/2000/svg" p-id="6207" xmlns:xlink="http://www.w3.org/1999/xlink" width="200" height="200"><path d="M0 0h1024v1024H0z" fill="#f4f4f4" p-id="6208"></path><path d="M735.955 767.978H288c-17.673 0-31.999-14.327-31.999-31.999v-0.023c0.019-25.422 0.028-39.45 0.028-42.08 0-44.254 47.76-80.144 128.337-118.62 18.646-9.008 54.822-20.106 55.599-23.249 0.777-3.143-0.8-6.234-4.162-10.714-1.599-2.13-3.492-4.436-6.277-7.673-0.546-0.634-0.92-1.067-1.875-2.17-0.97-1.116-0.97-1.116-1.97-2.27-1.4-1.61-2.79-3.232-4.166-4.862-4.227-5.016-7.65-9.413-10.822-14.042-23.71-34.634-30.976-71.201-30.976-112.58 0-54.766 20.19-94.013 54.646-117.99C457.635 263.514 485.525 256 506.064 256h11.802c20.539 0 48.43 7.513 71.702 23.707 34.456 23.976 54.646 63.223 54.646 117.99 0 41.394-7.26 77.947-30.977 112.58-3.17 4.63-6.595 9.03-10.827 14.051a453.983 453.983 0 0 1-4.162 4.86l-1.968 2.269c-0.953 1.1-1.328 1.534-1.873 2.167-2.782 3.235-4.674 5.538-6.272 7.668-3.361 4.481-5.381 4.481-5.381 10.118 0 5.637 38.111 14.816 56.77 23.826 80.626 38.498 128.378 74.393 128.378 118.64l0.052 42.103c0.012 17.672-14.304 32.009-31.976 32.021h-0.023v-0.022z" fill="#b2b2b2" p-id="6209"></path></svg>